# xmcd
#
# Track frame offsets: 
#        150
#        16240
#        35203
#        61719
#        78263
#        98955
#        117134
#        134654
#        154597
#        185573
#        207402
#
# Disc length: 2990 seconds
#
# Revision: 0
# Processed by: cddbd v1.5.2PL0 Copyright (c) Steve Scherf et al.
# Submitted via: ExactAudioCopyFreeDBPlugin 1.0
#
DISCID=910bac0b
DTITLE=Concha Buika - La Niña De Fuego
DYEAR=2008
DGENRE=New Age
TTITLE0=La Falsa Moneda
TTITLE1=Culpa Mía
TTITLE2=Miénteme Bien
TTITLE3=Niña De Fuego
TTITLE4=Arboles De Agua
TTITLE5=Niebla
TTITLE6=No Habrá Nadie En El Mundo
TTITLE7=Volver, Volver
TTITLE8=Volverás
TTITLE9=Mentirosa
TTITLE10=Hay En La Luz
EXTD=
EXTT0=
EXTT1=
EXTT2=
EXTT3=
EXTT4=
EXTT5=
EXTT6=
EXTT7=
EXTT8=
EXTT9=
EXTT10=
PLAYORDER=
